<?xml version="1.0" standalone="no"?>
<!DOCTYPE svg PUBLIC "-//W3C//DTD SVG 20010904//EN"
 "http://www.w3.org/TR/2001/REC-SVG-20010904/DTD/svg10.dtd">
<svg version="1.0" xmlns="http://www.w3.org/2000/svg"
 width="256.000000pt" height="256.000000pt" viewBox="0 0 256.000000 256.000000"
 preserveAspectRatio="xMidYMid meet">

<g transform="translate(0.000000,256.000000) scale(0.100000,-0.100000)"
fill="#000000" stroke="none">
<path d="M405 2258 c-41 -22 -45 -38 -45 -168 0 -119 1 -128 23 -148 32 -30
87 -29 115 1 20 21 22 34 22 144 0 67 -3 129 -6 138 -7 17 -54 45 -76 45 -7 0
-22 -6 -33 -12z"/>
<path d="M446 1859 c-46 -36 -37 -63 110 -364 l137 -277 21 25 c27 32 57 47
95 47 17 0 31 5 31 10 0 6 -25 60 -55 120 -30 60 -55 114 -55 120 0 7 126 10
369 10 l369 0 52 -132 c29 -73 56 -137 61 -142 24 -25 14 13 -37 146 l-56 146
-106 8 c-88 6 -576 -1 -647 -9 -16 -2 -34 25 -96 146 -41 82 -82 153 -90 158
-25 15 -75 10 -103 -12z"/>
<path d="M752 1227 c-23 -25 -29 -75 -12 -107 20 -37 59 -40 516 -40 l443 0
193 -116 c106 -64 207 -118 225 -121 55 -9 99 54 77 112 -4 9 -101 79 -215
156 l-209 139 -498 0 -499 0 -21 -23z"/>
<path d="M954 1036 c-15 -12 -17 -18 -8 -33 10 -17 32 -18 305 -18 282 0 294
1 297 19 9 42 -17 46 -303 46 -221 0 -275 -3 -291 -14z"/>
<path d="M1212 803 l3 -138 25 0 25 0 3 138 3 137 -31 0 -31 0 3 -137z"/>
<path d="M1160 540 l0 -90 85 0 86 0 -3 88 -3 87 -82 3 -83 3 0 -91z"/>
<path d="M789 395 c-28 -15 -52 -46 -63 -82 l-7 -23 525 0 c361 0 526 3 526
10 0 25 -33 72 -63 90 -30 19 -53 20 -462 20 -352 -1 -435 -3 -456 -15z"/>
</g>
</svg>
